<?xml version="1.0" encoding="utf-8"?>
<!-- Generator: Adobe Illustrator 22.0.1, SVG Export Plug-In . SVG Version: 6.00 Build 0)  -->
<svg version="1.1" id="Layer_1" xmlns="http://www.w3.org/2000/svg" xmlns:xlink="http://www.w3.org/1999/xlink" x="0px" y="0px"
	 viewBox="0 0 151.1 209.1" style="enable-background:new 0 0 151.1 209.1;" xml:space="preserve">
<style type="text/css">
	.st0{fill:#FFC914;}
	.st1{fill:#093F68;}
	.st2{fill:#FFFFFF;}
	.st3{fill:#F56132;}
	.st4{fill:#FFBC0E;}
	.st5{fill:#70CC40;}
</style>
<g id="_36_online_shopping_outline">
	<path class="st0" d="M41.1,13.4h70.5c10.4,0,18.8,8.4,18.8,18.8v148.7c0,10.4-8.4,18.8-18.8,18.8H41.1c-10.4,0-18.8-8.4-18.8-18.8
		V32.2C22.3,21.9,30.7,13.4,41.1,13.4z"/>
	<path class="st1" d="M111.6,200.8H41.1c-10.9,0-19.8-8.9-19.8-19.8V32.2c0-10.9,8.9-19.8,19.8-19.8h70.5c10.9,0,19.8,8.9,19.8,19.8
		v148.7C131.4,191.9,122.6,200.7,111.6,200.8z M41.1,14.4c-9.8,0-17.8,8-17.8,17.8v148.7c0,9.8,8,17.8,17.8,17.8h70.5
		c9.8,0,17.8-8,17.8-17.8V32.2c0-9.8-8-17.8-17.8-17.8H41.1z"/>
	<path class="st2" d="M38.5,32.6h75.7c4,0,7.3,3.3,7.3,7.3v125.9c0,4-3.3,7.3-7.3,7.3H38.5c-4,0-7.3-3.3-7.3-7.3V39.9
		C31.2,35.8,34.5,32.6,38.5,32.6z"/>
	<path class="st1" d="M114.2,174.1H38.5c-4.6,0-8.3-3.7-8.3-8.3V39.9c0-4.6,3.7-8.3,8.3-8.3l0,0h75.7c4.6,0,8.3,3.7,8.3,8.3
		c0,0,0,0,0,0v125.9C122.6,170.4,118.8,174.1,114.2,174.1z M38.5,33.6c-3.5,0-6.3,2.8-6.3,6.3v125.9c0,3.5,2.8,6.3,6.3,6.3h75.7
		c3.5,0,6.3-2.8,6.3-6.3V39.9c0-3.5-2.8-6.3-6.3-6.3L38.5,33.6z"/>
	<circle class="st1" cx="62.4" cy="23.2" r="1.4"/>
	<path class="st1" d="M91.7,24.2H69.2c-0.6,0-1-0.5-1-1c0-0.6,0.5-1,1-1h22.6c0.6,0,1,0.5,1,1C92.8,23.8,92.3,24.2,91.7,24.2
		L91.7,24.2z"/>
	<circle class="st1" cx="76.4" cy="185.4" r="6.7"/>
	<path class="st1" d="M76.4,193.2c-4.3,0-7.7-3.5-7.7-7.7c0-4.3,3.5-7.7,7.7-7.7c4.3,0,7.7,3.5,7.7,7.7c0,0,0,0,0,0
		C84.1,189.7,80.6,193.1,76.4,193.2z M76.4,179.7c-3.2,0-5.7,2.6-5.7,5.7c0,3.2,2.6,5.7,5.7,5.7c3.2,0,5.7-2.6,5.7-5.7c0,0,0,0,0,0
		C82.1,182.3,79.5,179.7,76.4,179.7L76.4,179.7z"/>
	<path class="st3" d="M17.4,63.6H41l0,0v4.3c0,6.5-5.3,11.8-11.8,11.8l0,0c-6.5,0-11.8-5.3-11.8-11.8L17.4,63.6L17.4,63.6L17.4,63.6
		z"/>
	<path class="st1" d="M29.2,80.7c-7.1,0-12.8-5.7-12.8-12.8v-4.3c0-0.6,0.5-1,1-1H41c0.6,0,1,0.5,1,1v4.3C42,75,36.3,80.7,29.2,80.7
		z M18.4,64.6v3.3c0,6,4.8,10.8,10.8,10.8c6,0,10.8-4.8,10.8-10.8v-3.3H18.4z"/>
	<path class="st4" d="M41,63.6h23.6l0,0v4.3c0,6.5-5.3,11.8-11.8,11.8l0,0c-6.5,0-11.8-5.3-11.8-11.8L41,63.6L41,63.6z"/>
	<path class="st1" d="M52.8,80.7C45.7,80.7,40,75,40,67.9v-4.3c0-0.6,0.5-1,1-1h23.6c0.6,0,1,0.5,1,1v4.3
		C65.6,75,59.9,80.7,52.8,80.7z M42,64.6v3.3c0.2,6,5.2,10.6,11.1,10.4c5.7-0.2,10.3-4.7,10.4-10.4v-3.3H42z"/>
	<path class="st3" d="M64.6,63.6h23.6l0,0v4.3c0,6.5-5.3,11.8-11.8,11.8l0,0c-6.5,0-11.8-5.3-11.8-11.8V63.6L64.6,63.6L64.6,63.6z"
		/>
	<path class="st1" d="M76.4,80.7c-7.1,0-12.8-5.7-12.8-12.8v-4.3c0-0.6,0.5-1,1-1h23.6c0.6,0,1,0.5,1,1v4.3
		C89.2,75,83.4,80.7,76.4,80.7z M65.6,64.6v3.3c0,6,4.8,10.8,10.8,10.8c6,0,10.8-4.8,10.8-10.8v-3.3H65.6z"/>
	<path class="st4" d="M88.2,63.6h23.6l0,0v4.3c0,6.5-5.3,11.8-11.8,11.8l0,0c-6.5,0-11.8-5.3-11.8-11.8L88.2,63.6L88.2,63.6
		L88.2,63.6z"/>
	<path class="st1" d="M100,80.7c-7.1,0-12.8-5.7-12.8-12.8v-4.3c0-0.6,0.5-1,1-1h23.6c0.6,0,1,0.5,1,1v4.3
		C112.8,75,107,80.7,100,80.7z M89.2,64.6v3.3c0.2,6,5.2,10.6,11.1,10.4c5.7-0.2,10.3-4.7,10.4-10.4v-3.3H89.2z"/>
	<polygon class="st3" points="30.2,30.4 17.4,63.6 41,63.6 48.7,30.4 	"/>
	<path class="st1" d="M41,64.6H17.4c-0.6,0-1-0.5-1-1c0-0.1,0-0.2,0.1-0.4L29.3,30c0.2-0.4,0.5-0.6,0.9-0.6h18.5c0.6,0,1,0.4,1,1
		c0,0.1,0,0.2,0,0.3L42,63.8C41.9,64.3,41.5,64.6,41,64.6z M18.9,62.6h21.3l7.2-31.2H30.9L18.9,62.6z"/>
	<polygon class="st4" points="48.7,30.4 41,63.6 64.6,63.6 67.2,30.4 	"/>
	<path class="st1" d="M64.6,64.6H41c-0.6,0-1-0.4-1-1c0-0.1,0-0.2,0-0.3l7.7-33.2c0.1-0.5,0.5-0.8,1-0.8h18.5c0.3,0,0.6,0.1,0.8,0.3
		c0.2,0.2,0.3,0.5,0.3,0.8l-2.6,33.2C65.6,64.2,65.1,64.6,64.6,64.6z M42.3,62.6h21.4L66,31.4H49.5L42.3,62.6z"/>
	<polygon class="st3" points="67.2,30.4 64.6,63.6 88.2,63.6 85.6,30.4 	"/>
	<path class="st1" d="M88.2,64.6H64.6c-0.3,0-0.5-0.1-0.7-0.3c-0.2-0.2-0.3-0.5-0.3-0.8l2.6-33.2c0-0.5,0.5-0.9,1-0.9h18.5
		c0.5,0,1,0.4,1,0.9l2.6,33.2c0,0.3-0.1,0.6-0.3,0.8C88.7,64.5,88.5,64.6,88.2,64.6z M65.7,62.6h21.4l-2.4-31.2H68.1L65.7,62.6z"/>
	<polygon class="st4" points="85.6,30.4 88.2,63.6 111.8,63.6 104.1,30.4 	"/>
	<path class="st1" d="M111.8,64.6H88.2c-0.5,0-1-0.4-1-0.9l-2.6-33.2c0-0.3,0.1-0.6,0.3-0.8c0.2-0.2,0.5-0.3,0.8-0.3h18.5
		c0.5,0,0.9,0.3,1,0.8l7.7,33.2c0.1,0.5-0.2,1.1-0.8,1.2C111.9,64.6,111.8,64.6,111.8,64.6L111.8,64.6z M89.1,62.6h21.4l-7.2-31.2
		H86.7L89.1,62.6z"/>
	<polygon class="st3" points="104.1,30.4 111.8,63.6 135.3,63.6 122.5,30.4 	"/>
	<path class="st1" d="M135.3,64.6h-23.6c-0.5,0-0.9-0.3-1-0.8l-7.7-33.2c-0.1-0.5,0.2-1.1,0.8-1.2c0.1,0,0.2,0,0.3,0h18.5
		c0.4,0,0.8,0.3,0.9,0.6l12.8,33.2c0.2,0.5-0.1,1.1-0.6,1.3C135.6,64.6,135.4,64.6,135.3,64.6L135.3,64.6z M112.6,62.6h21.3
		l-12-31.2h-16.5L112.6,62.6z"/>
	<path class="st3" d="M111.8,63.6h23.6l0,0v4.3c0,6.5-5.3,11.8-11.8,11.8l0,0c-6.5,0-11.8-5.3-11.8-11.8V63.6L111.8,63.6z"/>
	<path class="st1" d="M123.5,80.7c-7.1,0-12.8-5.7-12.8-12.8v-4.3c0-0.6,0.5-1,1-1h23.6c0.6,0,1,0.5,1,1v4.3
		C136.3,75,130.6,80.7,123.5,80.7z M112.8,64.6v3.3c0,6,4.8,10.8,10.8,10.8c5.9,0,10.8-4.8,10.8-10.8v-3.3H112.8z"/>
	<path class="st5" d="M58.1,145h36.5c3.3,0,5.9,2.6,5.9,5.9v2.1c0,3.3-2.6,5.9-5.9,5.9H58.1c-3.3,0-5.9-2.6-5.9-5.9v-2.1
		C52.2,147.7,54.9,145,58.1,145z"/>
	<path class="st1" d="M94.6,159.9H58.1c-3.8,0-6.9-3.1-6.9-6.9v-2c0-3.8,3.1-6.9,6.9-6.9h36.5c3.8,0,6.9,3.1,6.9,6.9v2
		C101.6,156.8,98.5,159.9,94.6,159.9z M58.1,146c-2.7,0-4.9,2.2-4.9,4.9v2c0,2.7,2.2,4.9,4.9,4.9h36.5c2.7,0,4.9-2.2,4.9-4.9v-2
		c0-2.7-2.2-4.9-4.9-4.9H58.1z"/>
	<path class="st1" d="M82.4,107.1c-0.6,0-1-0.5-1-1V94.6c0-3.5-2.9-6.4-6.4-6.4s-6.4,2.9-6.4,6.4v11.5c0,0.6-0.5,1-1,1s-1-0.5-1-1
		V94.6c0-4.7,3.8-8.5,8.5-8.5s8.5,3.8,8.5,8.5l0,0v11.5C83.4,106.6,83,107.1,82.4,107.1z"/>
	<path class="st0" d="M55.6,103h7.7l0,0v32.2l0,0H53l0,0v-29.5C53,104.2,54.2,103,55.6,103z"/>
	<path class="st1" d="M63.3,136.2H53c-0.6,0-1-0.5-1-1v-29.5c0-2,1.7-3.7,3.7-3.7h7.7c0.6,0,1,0.5,1,1v32.2
		C64.3,135.8,63.9,136.2,63.3,136.2L63.3,136.2z M54,134.2h8.3V104h-6.7c-0.9,0-1.7,0.7-1.7,1.7c0,0,0,0,0,0L54,134.2z"/>
	<path class="st0" d="M63.8,103h33.3c1.5,0,2.7,1.2,2.7,2.7c0,0,0,0,0,0v29.5l0,0H60.9l0,0v-29.3C60.9,104.3,62.2,103,63.8,103
		L63.8,103z"/>
	<path class="st1" d="M99.8,136.2H60.9c-0.6,0-1-0.5-1-1v-29.3c0-2.2,1.8-3.9,3.9-3.9h33.3c2,0,3.7,1.7,3.7,3.7v29.5
		C100.8,135.8,100.3,136.2,99.8,136.2z M61.9,134.2h36.9v-28.5c0-0.9-0.7-1.7-1.7-1.7c0,0,0,0,0,0H63.8c-1,0-1.9,0.8-1.9,1.9V134.2z
		"/>
	<path class="st1" d="M87.6,110.4c-0.6,0-1-0.5-1-1V94.6c0-3.5-2.9-6.4-6.4-6.4s-6.4,2.9-6.4,6.4v14.8c0,0.6-0.5,1-1,1s-1-0.5-1-1
		V94.6c0-4.7,3.8-8.5,8.5-8.5s8.5,3.8,8.5,8.5l0,0v14.8C88.6,109.9,88.2,110.4,87.6,110.4z"/>
	<path class="st2" d="M71.9,153.3c0,0.3-0.1,0.6-0.2,0.9c-0.1,0.2-0.3,0.4-0.6,0.6c-0.2,0.1-0.5,0.3-0.8,0.3
		c-0.3,0.1-0.6,0.1-0.9,0.1h-2.6v-6.5h2.6c0.3,0,0.5,0,0.8,0.1c0.3,0,0.5,0.1,0.7,0.3c0.2,0.1,0.4,0.3,0.5,0.5
		c0.1,0.2,0.2,0.5,0.2,0.8c0,0.3-0.1,0.6-0.3,0.9c-0.2,0.2-0.5,0.4-0.8,0.5l0,0c0.2,0,0.4,0.1,0.5,0.2c0.2,0.1,0.3,0.2,0.4,0.3
		c0.1,0.1,0.2,0.3,0.3,0.5C71.8,152.9,71.9,153.1,71.9,153.3z M70.1,150.6c0-0.2-0.1-0.4-0.2-0.5c-0.2-0.1-0.5-0.2-0.8-0.2h-0.8v1.3
		h0.8c0.2,0,0.5,0,0.7-0.2C70,150.9,70.1,150.7,70.1,150.6L70.1,150.6z M70.3,153.1c0-0.2-0.1-0.5-0.3-0.6c-0.3-0.1-0.5-0.2-0.8-0.2
		h-0.9v1.5h0.9c0.1,0,0.3,0,0.4,0c0.1,0,0.2-0.1,0.4-0.1c0.1-0.1,0.2-0.1,0.3-0.2C70.3,153.4,70.3,153.2,70.3,153.1L70.3,153.1z"/>
	<path class="st2" d="M80.4,153.7c-0.1,0.3-0.3,0.6-0.6,0.8c-0.3,0.2-0.6,0.4-0.9,0.5c-0.4,0.1-0.7,0.2-1.1,0.2
		c-0.4,0-0.8-0.1-1.2-0.2c-0.3-0.1-0.6-0.3-0.9-0.5c-0.2-0.2-0.4-0.5-0.5-0.8c-0.1-0.3-0.2-0.7-0.2-1v-4.1h1.6v3.9
		c0,0.2,0,0.3,0.1,0.5c0,0.2,0.1,0.3,0.2,0.4c0.1,0.1,0.2,0.2,0.4,0.3c0.2,0.1,0.4,0.1,0.6,0.1c0.2,0,0.4,0,0.6-0.1
		c0.1-0.1,0.3-0.2,0.4-0.3c0.1-0.1,0.2-0.3,0.2-0.4c0-0.2,0.1-0.3,0.1-0.5v-3.9h1.6v4.1C80.6,153.1,80.6,153.4,80.4,153.7z"/>
	<path class="st2" d="M87.1,152.4v2.7h-1.6v-2.7l-2.4-3.7H85l1.4,2.4l1.4-2.4h1.8L87.1,152.4z"/>
</g>
</svg>
